<svg xmlns="http://www.w3.org/2000/svg" width="64" height="64" viewBox="0 0 64 64" fill="none">
  <title>Quizards favicon</title>
  <g stroke="#3b6fd8" stroke-linecap="round" stroke-linejoin="round">
    <path
      d="M40 12H16c-2.209 0-4 1.791-4 4v28c0 2.209 1.791 4 4 4h26c2.209 0 4-1.791 4-4v-5"
      stroke-width="4.5"
    />
    <path
      d="M19 9h21c2.209 0 4 1.791 4 4v19"
      stroke-width="4.5"
    />
    <path
      d="M46.5 18.5 55 21c2.116.622 3.329 2.842 2.707 4.958L48 58c-.622 2.116-2.842 3.329-4.958 2.707L18.5 53.5"
      stroke-width="4.5"
    />
  </g>
  <circle
    cx="28"
    cy="31"
    r="8"
    stroke="#3b6fd8"
    stroke-width="4.5"
  />
  <path
    d="m32.5 35.5 4 4.5"
    stroke="#3b6fd8"
    stroke-width="4.5"
    stroke-linecap="round"
    stroke-linejoin="round"
  />
</svg>
